STARTFONT 2.1
COMMENT Exported by Fony v1.4.6
FONT Fixed
SIZE 40 100 100
FONTBOUNDINGBOX 26 39 0 -2
STARTPROPERTIES 6
COPYRIGHT "Public domain terminal emulator font.  Share and enjoy. original font -Misc-Fixed-Medium-R-SemiCondensed--12-110-75-75-C-60-ISO10646-1"
RESOLUTION_X 100
RESOLUTION_Y 100
FONT_ASCENT 38
FONT_DESCENT 2
DEFAULT_CHAR 0
ENDPROPERTIES
CHARS 256
STARTCHAR 000
ENCODING 0
SWIDTH 1368 0
DWIDTH 19 0
BBX 0 0 0 0
BITMAP
ENDCHAR
STARTCHAR 001
ENCODING 1
SWIDTH 1728 0
DWIDTH 24 0
BBX 20 27 0 4
BITMAP
0F0000
0F0000
0F0000
FFFF00
FFFF80
FFFFC0
FFFFE0
FF00F0
FF00F0
FF00F0
F000F0
F000F0
F000F0
F000F0
F000F0
F000F0
F000F0
F00FF0
F00FF0
F00FF0
7FFFF0
3FFFF0
1FFFF0
0FFFF0
000F00
000F00
000F00
ENDCHAR
STARTCHAR 002
ENCODING 2
SWIDTH 1728 0
DWIDTH 24 0
BBX 20 27 0 4
BITMAP
FF0000
FF0000
FF0000
FFFFF0
FFFFF0
FFFFF0
FFFFF0
F000F0
F000F0
F000F0
F000F0
F000F0
F000F0
F000F0
F000F0
F000F0
F000F0
F000F0
F000F0
F000F0
F000F0
F000F0
F000F0
FFFFF0
FFFFF0
FFFFF0
FFFFF0
ENDCHAR
STARTCHAR 003
ENCODING 3
SWIDTH 1728 0
DWIDTH 24 0
BBX 19 18 0 7
BITMAP
00E000
00F000
00F800
00FC00
00FE00
00FF00
00FF80
FFFFC0
FFFFE0
FFFFE0
FFFFC0
00FF80
00FF00
00FE00
00FC00
00F800
00F000
00E000
ENDCHAR
STARTCHAR 004
ENCODING 4
SWIDTH 1728 0
DWIDTH 24 0
BBX 19 29 0 4
BITMAP
004000
00E000
01F000
03F800
07FC00
0FFE00
1FFF00
3FFF80
7FFFC0
FFFFE0
FFFFE0
FFFFE0
00F000
00F000
00F000
00F000
00F000
00F000
00F000
00F000
00F000
00F000
00F000
00F000
00F000
FFF000
FFF000
FFF000
FFF000
ENDCHAR
STARTCHAR 005
ENCODING 5
SWIDTH 1728 0
DWIDTH 24 0
BBX 20 30 0 1
BITMAP
00F000
00F000
00F000
0FFF00
1FFF80
3FFFC0
7FFFE0
FCF3F0
F8F1F0
F0F0F0
F0F0F0
F0F0F0
F0F0F0
F0FFF0
F0FFF0
F0FFF0
F0FFF0
F000F0
F000F0
F000F0
F000F0
F801F0
FC03F0
7FFFE0
3FFFC0
1FFF80
0FFF00
00F000
00F000
00F000
ENDCHAR
STARTCHAR 006
ENCODING 6
SWIDTH 1872 0
DWIDTH 26 0
BBX 24 16 0 8
BITMAP
FE3F80
7F1FC0
3F8FE0
1FC7F0
0FE3F8
07F1FC
03F8FE
01FC7F
01FC7F
03F8FE
07F1FC
0FE3F8
1FC7F0
3F8FE0
7F1FC0
FE3F80
ENDCHAR
STARTCHAR 007
ENCODING 7
SWIDTH 1728 0
DWIDTH 24 0
BBX 20 30 0 1
BITMAP
FFFFF0
FFFFF0
FFFFF0
F0F0F0
F0F0F0
F0F0F0
F0F0F0
F000F0
F000F0
F000F0
F000F0
F000F0
F000F0
F000F0
F000F0
F000F0
F000F0
F000F0
F000F0
F000F0
F000F0
F000F0
F000F0
F0F0F0
F0F0F0
F0F0F0
F0F0F0
FFFFF0
FFFFF0
FFFFF0
ENDCHAR
STARTCHAR 008
ENCODING 8
SWIDTH 1728 0
DWIDTH 24 0
BBX 20 33 0 -2
BITMAP
01F800
03FC00
07FE00
0F0F00
0F0F00
0F0F00
0F0F00
0F0F00
0F0F00
0F0F00
0F0F00
0F0F00
0F0F00
0F0F00
1F0F80
3F0FC0
7F0FE0
F801F0
F000F0
F000F0
F0F0F0
F0F0F0
F0F0F0
F0F0F0
F0F0F0
F0F0F0
F0F0F0
F000F0
F000F0
F801F0
7FFFE0
3FFFC0
1FFF80
ENDCHAR
STARTCHAR 009
ENCODING 9
SWIDTH 1728 0
DWIDTH 24 0
BBX 10 9 1 15
BITMAP
1E00
3F00
7F80
F3C0
E1C0
F3C0
7F80
3F00
1E00
ENDCHAR
STARTCHAR 010
ENCODING 10
SWIDTH 1368 0
DWIDTH 19 0
BBX 0 0 0 0
BITMAP
ENDCHAR
STARTCHAR 011
ENCODING 11
SWIDTH 1368 0
DWIDTH 19 0
BBX 0 0 0 0
BITMAP
ENDCHAR
STARTCHAR 012
ENCODING 12
SWIDTH 1368 0
DWIDTH 19 0
BBX 0 0 0 0
BITMAP
ENDCHAR
STARTCHAR 013
ENCODING 13
SWIDTH 1368 0
DWIDTH 19 0
BBX 0 0 0 0
BITMAP
ENDCHAR
STARTCHAR 014
ENCODING 14
SWIDTH 1368 0
DWIDTH 19 0
BBX 0 0 0 0
BITMAP
ENDCHAR
STARTCHAR 015
ENCODING 15
SWIDTH 1368 0
DWIDTH 19 0
BBX 0 0 0 0
BITMAP
ENDCHAR
STARTCHAR 016
ENCODING 16
SWIDTH 1368 0
DWIDTH 19 0
BBX 0 0 0 0
BITMAP
ENDCHAR
STARTCHAR 017
ENCODING 17
SWIDTH 1368 0
DWIDTH 19 0
BBX 0 0 0 0
BITMAP
ENDCHAR
STARTCHAR 018
ENCODING 18
SWIDTH 1368 0
DWIDTH 19 0
BBX 0 0 0 0
BITMAP
ENDCHAR
STARTCHAR 019
ENCODING 19
SWIDTH 1368 0
DWIDTH 19 0
BBX 0 0 0 0
BITMAP
ENDCHAR
STARTCHAR 020
ENCODING 20
SWIDTH 1368 0
DWIDTH 19 0
BBX 0 0 0 0
BITMAP
ENDCHAR
STARTCHAR 021
ENCODING 21
SWIDTH 1368 0
DWIDTH 19 0
BBX 0 0 0 0
BITMAP
ENDCHAR
STARTCHAR 022
ENCODING 22
SWIDTH 1368 0
DWIDTH 19 0
BBX 0 0 0 0
BITMAP
ENDCHAR
STARTCHAR 023
ENCODING 23
SWIDTH 1368 0
DWIDTH 19 0
BBX 0 0 0 0
BITMAP
ENDCHAR
STARTCHAR 024
ENCODING 24
SWIDTH 1368 0
DWIDTH 19 0
BBX 0 0 0 0
BITMAP
ENDCHAR
STARTCHAR 025
ENCODING 25
SWIDTH 1368 0
DWIDTH 19 0
BBX 0 0 0 0
BITMAP
ENDCHAR
STARTCHAR 026
ENCODING 26
SWIDTH 1368 0
DWIDTH 19 0
BBX 0 0 0 0
BITMAP
ENDCHAR
STARTCHAR 027
ENCODING 27
SWIDTH 1368 0
DWIDTH 19 0
BBX 0 0 0 0
BITMAP
ENDCHAR
STARTCHAR 028
ENCODING 28
SWIDTH 1368 0
DWIDTH 19 0
BBX 0 0 0 0
BITMAP
ENDCHAR
STARTCHAR 029
ENCODING 29
SWIDTH 1368 0
DWIDTH 19 0
BBX 0 0 0 0
BITMAP
ENDCHAR
STARTCHAR 030
ENCODING 30
SWIDTH 1368 0
DWIDTH 19 0
BBX 0 0 0 0
BITMAP
ENDCHAR
STARTCHAR 031
ENCODING 31
SWIDTH 1368 0
DWIDTH 19 0
BBX 0 0 0 0
BITMAP
ENDCHAR
STARTCHAR 032
ENCODING 32
SWIDTH 1728 0
DWIDTH 24 0
BBX 0 0 0 0
BITMAP
ENDCHAR
STARTCHAR 033
ENCODING 33
SWIDTH 1728 0
DWIDTH 24 0
BBX 4 24 8 4
BITMAP
F0
F0
F0
F0
F0
F0
F0
F0
F0
F0
F0
F0
F0
F0
F0
F0
F0
00
00
00
F0
F0
F0
F0
ENDCHAR
STARTCHAR 034
ENCODING 34
SWIDTH 1728 0
DWIDTH 24 0
BBX 12 10 4 21
BITMAP
F0F0
F0F0
F0F0
F0F0
F0F0
F0F0
F0F0
F0F0
F0F0
F0F0
ENDCHAR
STARTCHAR 035
ENCODING 35
SWIDTH 1728 0
DWIDTH 24 0
BBX 20 20 0 4
BITMAP
0F0F00
0F0F00
0F0F00
FFFFF0
FFFFF0
FFFFF0
0F0F00
0F0F00
0F0F00
0F0F00
0F0F00
0F0F00
0F0F00
FFFFF0
FFFFF0
FFFFF0
0F0F00
0F0F00
0F0F00
0F0F00
ENDCHAR
STARTCHAR 036
ENCODING 36
SWIDTH 1728 0
DWIDTH 24 0
BBX 20 30 0 1
BITMAP
00F000
00F000
00F000
0FFF00
1FFF80
3FFFC0
7FFFE0
F8F1F0
F0F0F0
F0F0F0
F0F000
F0F000
F8F000
7FFF00
3FFF80
1FFFC0
0FFFE0
00F1F0
00F0F0
00F0F0
F0F0F0
F0F0F0
F8F1F0
7FFFE0
3FFFC0
1FFF80
0FFF00
00F000
00F000
00F000
ENDCHAR
STARTCHAR 037
ENCODING 37
SWIDTH 1728 0
DWIDTH 24 0
BBX 20 24 0 4
BITMAP
FF00F0
FF00F0
FF00F0
FF01F0
FF03F0
FF07E0
FF0FC0
001F80
003F00
007E00
00FC00
01F800
03F000
07E000
0FC000
1F8000
3F0000
7E0FF0
FC0FF0
F80FF0
F00FF0
F00FF0
F00FF0
F00FF0
ENDCHAR
STARTCHAR 038
ENCODING 38
SWIDTH 1728 0
DWIDTH 24 0
BBX 20 24 0 4
BITMAP
0F0000
1F8000
3FC000
7FE000
F9F000
F0F000
F0F000
F0F000
F0F000
F9F000
7FE000
3FC000
3FC000
7FE000
F9F0F0
F0F9F0
F07FF0
F03F80
F01F00
F83F80
7FFFF0
3FFFF0
1FF9F0
0FF0F0
ENDCHAR
STARTCHAR 039
ENCODING 39
SWIDTH 1728 0
DWIDTH 24 0
BBX 4 10 8 21
BITMAP
F0
F0
F0
F0
F0
F0
F0
F0
F0
F0
ENDCHAR
STARTCHAR 040
ENCODING 40
SWIDTH 1728 0
DWIDTH 24 0
BBX 12 30 4 1
BITMAP
01F0
03F0
07F0
0F80
1F00
1E00
3E00
3C00
7C00
7800
F000
F000
F000
F000
F000
F000
F000
F000
F000
F000
7800
7C00
3C00
3E00
1E00
1F00
0F80
07F0
03F0
01F0
ENDCHAR
STARTCHAR 041
ENCODING 41
SWIDTH 1728 0
DWIDTH 24 0
BBX 12 30 4 1
BITMAP
F800
FC00
FE00
1F00
0F80
0780
03C0
03C0
01E0
01E0
00F0
00F0
00F0
00F0
00F0
00F0
00F0
00F0
00F0
00F0
01E0
01E0
03C0
03C0
0780
0F80
1F00
FE00
FC00
F000
ENDCHAR
STARTCHAR 042
ENCODING 42
SWIDTH 1728 0
DWIDTH 24 0
BBX 20 24 0 4
BITMAP
00F000
00F000
00F000
00F000
F0F0F0
F8F1F0
7CF3E0
3EF7C0
1FFF80
0FFF00
07FE00
03FC00
03FC00
07FE00
0FFF00
1FFF80
3EF7C0
7CF3E0
F8F1F0
F0F0F0
00F000
00F000
00F000
00F000
ENDCHAR
STARTCHAR 043
ENCODING 43
SWIDTH 1728 0
DWIDTH 24 0
BBX 20 16 0 8
BITMAP
00F000
00F000
00F000
00F000
00F000
00F000
FFFFF0
FFFFF0
FFFFF0
FFFFF0
00F000
00F000
00F000
00F000
00F000
00F000
ENDCHAR
STARTCHAR 044
ENCODING 44
SWIDTH 1728 0
DWIDTH 24 0
BBX 8 10 4 1
BITMAP
FF
FF
FF
0F
0F
0F
1E
FC
F8
F0
ENDCHAR
STARTCHAR 045
ENCODING 45
SWIDTH 1728 0
DWIDTH 24 0
BBX 20 4 0 14
BITMAP
FFFFF0
FFFFF0
FFFFF0
FFFFF0
ENDCHAR
STARTCHAR 046
ENCODING 46
SWIDTH 1728 0
DWIDTH 24 0
BBX 8 7 4 4
BITMAP
FF
FF
FF
FF
FF
FF
FF
ENDCHAR
STARTCHAR 047
ENCODING 47
SWIDTH 1728 0
DWIDTH 24 0
BBX 20 24 0 4
BITMAP
000070
0000F0
0001F0
0003F0
0007E0
000FC0
001F80
001F80
003F00
007E00
00FC00
01FC00
03F800
03F000
07E000
07C000
0F8000
1F8000
3F0000
7E0000
FC0000
F80000
F00000
E00000
ENDCHAR
STARTCHAR 048
ENCODING 48
SWIDTH 1728 0
DWIDTH 24 0
BBX 20 24 0 4
BITMAP
0FFF00
1FFF80
3FFFC0
7FFFE0
F801F0
F003F0
F007F0
F00FF0
F01FF0
F03EF0
F07CF0
F0F8F0
F1F0F0
F3E0F0
F7C0F0
FF80F0
FF00F0
FE00F0
FC00F0
F801F0
7FFFE0
3FFFC0
1FFF80
0FFF00
ENDCHAR
STARTCHAR 049
ENCODING 49
SWIDTH 1728 0
DWIDTH 24 0
BBX 12 24 4 4
BITMAP
0F00
1F00
3F00
7F00
FF00
FF00
FF00
0F00
0F00
0F00
0F00
0F00
0F00
0F00
0F00
0F00
0F00
0F00
0F00
0F00
FFF0
FFF0
FFF0
FFF0
ENDCHAR
STARTCHAR 050
ENCODING 50
SWIDTH 1728 0
DWIDTH 24 0
BBX 20 24 0 4
BITMAP
0FFF00
1FFF80
3FFFC0
7FFFE0
F801F0
F000F0
F000F0
0001F0
0003E0
0007C0
000F80
001F00
003E00
007C00
00F800
01F000
03E000
07C000
0F8000
1F0000
FFFFF0
FFFFF0
FFFFF0
FFFFF0
ENDCHAR
STARTCHAR 051
ENCODING 51
SWIDTH 1728 0
DWIDTH 24 0
BBX 20 24 0 4
BITMAP
FFFFF0
FFFFF0
FFFFF0
FFFFF0
0000F0
0001F0
0003F0
0007E0
000FC0
001F80
003F00
007F80
007FC0
003FE0
0001F0
0000F0
0000F0
E000F0
F000F0
F801F0
7FFFE0
3FFFC0
1FFF80
0FFF00
ENDCHAR
STARTCHAR 052
ENCODING 52
SWIDTH 1728 0
DWIDTH 24 0
BBX 20 25 0 4
BITMAP
001F00
003F00
007F00
00FF00
01FF00
03EF00
07CF00
0F8F00
1F0F00
3E0F00
7C0F00
F80F00
F00F00
F00F00
F00F00
FFFFF0
FFFFF0
FFFFF0
000F00
000F00
000F00
000F00
000F00
000F00
000F00
ENDCHAR
STARTCHAR 053
ENCODING 53
SWIDTH 1728 0
DWIDTH 24 0
BBX 20 24 0 4
BITMAP
FFFFF0
FFFFF0
FFFFF0
FFFFF0
F00000
F00000
F00000
FFFF80
FFFFC0
FFFFE0
0001F0
0000F0
0000F0
0000F0
0000F0
0000F0
0000F0
E000F0
F000F0
F801F0
7FFFE0
3FFFC0
1FFF80
0FFF00
ENDCHAR
STARTCHAR 054
ENCODING 54
SWIDTH 1728 0
DWIDTH 24 0
BBX 20 24 0 4
BITMAP
01FF00
03FF00
07FF00
0FFF00
1F8000
3F0000
7E0000
FC0000
F80000
F00000
FFFF00
FFFF80
FFFFC0
FFFFE0
F001F0
F000F0
F000F0
F000F0
F000F0
F801F0
7FFFE0
3FFFC0
1FFF80
0FFF00
ENDCHAR
STARTCHAR 055
ENCODING 55
SWIDTH 1728 0
DWIDTH 24 0
BBX 20 24 0 4
BITMAP
FFFFF0
FFFFF0
FFFFF0
FFFFF0
0000F0
0000F0
0000F0
0001F0
0003E0
0007C0
000F80
001F00
003E00
007C00
00F800
00F000
00F000
00F000
00F000
00F000
00F000
00F000
00F000
00F000
ENDCHAR
STARTCHAR 056
ENCODING 56
SWIDTH 1728 0
DWIDTH 24 0
BBX 20 24 0 4
BITMAP
0FFF00
1FFF80
3FFFC0
7FFFE0
F801F0
F000F0
F000F0
F000F0
F000F0
F801F0
7FFFE0
3FFFC0
3FFFC0
7FFFE0
F801F0
F000F0
F000F0
F000F0
F000F0
F801F0
7FFFE0
3FFFC0
1FFF80
0FFF00
ENDCHAR
STARTCHAR 057
ENCODING 57
SWIDTH 1728 0
DWIDTH 24 0
BBX 20 24 0 4
BITMAP
0FFF00
1FFF80
3FFFC0
7FFFE0
F801F0
F000F0
F000F0
F000F0
F000F0
F800F0
7FFFF0
3FFFF0
1FFFF0
0FFFF0
0000F0
0001F0
0003F0
0007E0
000FC0
001F80
0FFF00
0FFE00
0FFC00
0FF800
ENDCHAR
STARTCHAR 058
ENCODING 58
SWIDTH 1728 0
DWIDTH 24 0
BBX 8 17 4 4
BITMAP
FF
FF
FF
FF
FF
FF
FF
00
00
00
FF
FF
FF
FF
FF
FF
FF
ENDCHAR
STARTCHAR 059
ENCODING 59
SWIDTH 1728 0
DWIDTH 24 0
BBX 8 20 4 1
BITMAP
FF
FF
FF
FF
FF
FF
FF
00
00
00
FF
FF
FF
0F
0F
0F
1E
FC
F8
F0
ENDCHAR
STARTCHAR 060
ENCODING 60
SWIDTH 1728 0
DWIDTH 24 0
BBX 13 16 3 8
BITMAP
0078
00F8
03F8
07E0
1F80
3F00
7C00
F800
F800
7C00
3F00
1F80
07E0
03F8
00F8
0078
ENDCHAR
STARTCHAR 061
ENCODING 61
SWIDTH 1728 0
DWIDTH 24 0
BBX 20 10 0 11
BITMAP
FFFFF0
FFFFF0
FFFFF0
000000
000000
000000
000000
FFFFF0
FFFFF0
FFFFF0
ENDCHAR
STARTCHAR 062
ENCODING 62
SWIDTH 1728 0
DWIDTH 24 0
BBX 13 16 4 8
BITMAP
F000
F800
FE00
3F00
0FC0
07E0
01F0
00F8
00F8
01F0
07E0
0FC0
3F00
FE00
F800
F000
ENDCHAR
STARTCHAR 063
ENCODING 63
SWIDTH 1728 0
DWIDTH 24 0
BBX 20 24 0 4
BITMAP
0FFF00
1FFF80
3FFFC0
7FFFE0
F801F0
F000F0
F000F0
0001F0
0003E0
0007C0
000F80
001F00
003E00
007C00
00F800
00F000
00F000
000000
000000
000000
00F000
00F000
00F000
00F000
ENDCHAR
STARTCHAR 064
ENCODING 64
SWIDTH 1728 0
DWIDTH 24 0
BBX 20 24 0 4
BITMAP
0FFF00
1FFF80
3FFFC0
7FFFE0
F801F0
F000F0
F000F0
F07FF0
F0FFF0
F0FFF0
F0F9F0
F0F0F0
F0F0F0
F0F9F0
F0FFF0
F0FFF0
F07FE0
F00000
F00000
F80000
7FFF00
3FFF00
1FFF00
0FFF00
ENDCHAR
STARTCHAR 065
ENCODING 65
SWIDTH 1728 0
DWIDTH 24 0
BBX 20 24 0 4
BITMAP
0FFF00
1FFF80
3FFFC0
7FFFE0
F801F0
F000F0
F000F0
F000F0
F000F0
F000F0
FFFFF0
FFFFF0
FFFFF0
FFFFF0
F000F0
F000F0
F000F0
F000F0
F000F0
F000F0
F000F0
F000F0
F000F0
F000F0
ENDCHAR
STARTCHAR 066
ENCODING 66
SWIDTH 1728 0
DWIDTH 24 0
BBX 20 24 0 4
BITMAP
FFFF00
FFFF80
FFFFC0
FFFFE0
0F01F0
0F00F0
0F00F0
0F00F0
0F00F0
0F01F0
0FFFE0
0FFFC0
0FFFC0
0FFFE0
0F01F0
0F00F0
0F00F0
0F00F0
0F00F0
0F01F0
FFFFE0
FFFFC0
FFFF80
FFFF00
ENDCHAR
STARTCHAR 067
ENCODING 67
SWIDTH 1728 0
DWIDTH 24 0
BBX 20 24 0 4
BITMAP
0FFF00
1FFF80
3FFFC0
7FFFE0
F801F0
F000F0
F000F0
F00000
F00000
F00000
F00000
F00000
F00000
F00000
F00000
F00000
F00000
F000F0
F000F0
F801F0
7FFFE0
3FFFC0
1FFF80
0FFF00
ENDCHAR
STARTCHAR 068
ENCODING 68
SWIDTH 1728 0
DWIDTH 24 0
BBX 20 24 0 4
BITMAP
FFFF00
FFFF80
FFFFC0
FFFFE0
0F01F0
0F00F0
0F00F0
0F00F0
0F00F0
0F00F0
0F00F0
0F00F0
0F00F0
0F00F0
0F00F0
0F00F0
0F00F0
0F00F0
0F00F0
0F01F0
FFFFE0
FFFFC0
FFFF80
FFFF00
ENDCHAR
STARTCHAR 069
ENCODING 69
SWIDTH 1728 0
DWIDTH 24 0
BBX 20 24 0 4
BITMAP
FFFFF0
FFFFF0
FFFFF0
FFFFF0
F00000
F00000
F00000
F00000
F00000
F00000
FFFF00
FFFF00
FFFF00
FFFF00
F00000
F00000
F00000
F00000
F00000
F00000
FFFFF0
FFFFF0
FFFFF0
FFFFF0
ENDCHAR
STARTCHAR 070
ENCODING 70
SWIDTH 1728 0
DWIDTH 24 0
BBX 20 24 0 4
BITMAP
FFFFF0
FFFFF0
FFFFF0
FFFFF0
F00000
F00000
F00000
F00000
F00000
F00000
FFFF00
FFFF00
FFFF00
FFFF00
F00000
F00000
F00000
F00000
F00000
F00000
F00000
F00000
F00000
F00000
ENDCHAR
STARTCHAR 071
ENCODING 71
SWIDTH 1728 0
DWIDTH 24 0
BBX 20 24 0 4
BITMAP
0FFF00
1FFF80
3FFFC0
7FFFE0
F801F0
F000F0
F000F0
F00000
F00000
F00000
F00000
F00000
F00000
F00FF0
F00FF0
F00FF0
F00FF0
F000F0
F000F0
F801F0
7FFFE0
3FFFC0
1FFF80
0FFF00
ENDCHAR
STARTCHAR 072
ENCODING 72
SWIDTH 1728 0
DWIDTH 24 0
BBX 20 24 0 4
BITMAP
F000F0
F000F0
F000F0
F000F0
F000F0
F000F0
F000F0
F000F0
F000F0
F000F0
FFFFF0
FFFFF0
FFFFF0
FFFFF0
F000F0
F000F0
F000F0
F000F0
F000F0
F000F0
F000F0
F000F0
F000F0
F000F0
ENDCHAR
STARTCHAR 073
ENCODING 73
SWIDTH 1728 0
DWIDTH 24 0
BBX 12 24 4 4
BITMAP
FFF0
FFF0
FFF0
FFF0
0F00
0F00
0F00
0F00
0F00
0F00
0F00
0F00
0F00
0F00
0F00
0F00
0F00
0F00
0F00
0F00
FFF0
FFF0
FFF0
FFF0
ENDCHAR
STARTCHAR 074
ENCODING 74
SWIDTH 1728 0
DWIDTH 24 0
BBX 20 24 0 4
BITMAP
00FFF0
00FFF0
00FFF0
00FFF0
000F00
000F00
000F00
000F00
000F00
000F00
000F00
000F00
000F00
000F00
000F00
000F00
000F00
F00F00
F00F00
F81F00
7FFE00
3FFC00
1FF800
0FF000
ENDCHAR
STARTCHAR 075
ENCODING 75
SWIDTH 1728 0
DWIDTH 24 0
BBX 19 24 0 4
BITMAP
F001E0
F003E0
F007C0
F00F80
F01F00
F03E00
F07C00
F0F800
F1F000
F3E000
FFC000
FF8000
FF8000
FFC000
F3E000
F1F000
F0F800
F07C00
F03E00
F01F00
F00F80
F007C0
F003E0
F001E0
ENDCHAR
STARTCHAR 076
ENCODING 76
SWIDTH 1728 0
DWIDTH 24 0
BBX 20 24 0 4
BITMAP
F00000
F00000
F00000
F00000
F00000
F00000
F00000
F00000
F00000
F00000
F00000
F00000
F00000
F00000
F00000
F00000
F00000
F00000
F00000
F00000
FFFFF0
FFFFF0
FFFFF0
FFFFF0
ENDCHAR
STARTCHAR 077
ENCODING 77
SWIDTH 1728 0
DWIDTH 24 0
BBX 20 24 0 4
BITMAP
F000F0
F000F0
F801F0
FC03F0
FE07F0
FF0FF0
FF9FF0
F7FEF0
F3FCF0
F1F8F0
F0F0F0
F000F0
F000F0
F000F0
F000F0
F000F0
F000F0
F000F0
F000F0
F000F0
F000F0
F000F0
F000F0
F000F0
ENDCHAR
STARTCHAR 078
ENCODING 78
SWIDTH 1728 0
DWIDTH 24 0
BBX 20 24 0 4
BITMAP
F000F0
F000F0
F000F0
F000F0
F800F0
FC00F0
FE00F0
FF00F0
FF80F0
F7C0F0
F3E0F0
F1F0F0
F0F8F0
F07CF0
F03EF0
F01FF0
F00FF0
F007F0
F003F0
F001F0
F000F0
F000F0
F000F0
F000F0
ENDCHAR
STARTCHAR 079
ENCODING 79
SWIDTH 1728 0
DWIDTH 24 0
BBX 20 24 0 4
BITMAP
0FFF00
1FFF80
3FFFC0
7FFFE0
F801F0
F000F0
F000F0
F000F0
F000F0
F000F0
F000F0
F000F0
F000F0
F000F0
F000F0
F000F0
F000F0
F000F0
F000F0
F801F0
7FFFE0
3FFFC0
1FFF80
0FFF00
ENDCHAR
STARTCHAR 080
ENCODING 80
SWIDTH 1728 0
DWIDTH 24 0
BBX 20 24 0 4
BITMAP
FFFF00
FFFF80
FFFFC0
FFFFE0
F001F0
F000F0
F000F0
F000F0
F000F0
F001F0
FFFFE0
FFFFC0
FFFF80
FFFF00
F00000
F00000
F00000
F00000
F00000
F00000
F00000
F00000
F00000
F00000
ENDCHAR
STARTCHAR 081
ENCODING 81
SWIDTH 1728 0
DWIDTH 24 0
BBX 20 24 0 4
BITMAP
0FFF00
1FFF80
3FFFC0
7FFFE0
F801F0
F000F0
F000F0
F000F0
F000F0
F000F0
F000F0
F000F0
F000F0
F000F0
F0F8F0
F0FCF0
F07EF0
F03F70
F01FB0
F80FC0
7FF7E0
3FFBF0
1FFDF0
0FFCF0
ENDCHAR
STARTCHAR 082
ENCODING 82
SWIDTH 1728 0
DWIDTH 24 0
BBX 20 24 0 4
BITMAP
FFFF00
FFFF80
FFFFC0
FFFFE0
F001F0
F000F0
F000F0
F000F0
F000F0
F001F0
FFFFE0
FFFFC0
FFFF80
FFFF00
F1F000
F0F800
F07C00
F03E00
F01F00
F00F80
F007C0
F003E0
F001F0
F000F0
ENDCHAR
STARTCHAR 083
ENCODING 83
SWIDTH 1728 0
DWIDTH 24 0
BBX 20 24 0 4
BITMAP
0FFF00
1FFF80
3FFFC0
7FFFE0
F801F0
F000F0
F000F0
F00000
F00000
F00000
7FFF00
3FFF80
1FFFC0
0FFFE0
0001F0
0000F0
0000F0
F000F0
F000F0
F801F0
7FFFE0
3FFFC0
1FFF80
0FFF00
ENDCHAR
STARTCHAR 084
ENCODING 84
SWIDTH 1728 0
DWIDTH 24 0
BBX 20 24 0 4
BITMAP
FFFFF0
FFFFF0
FFFFF0
FFFFF0
00F000
00F000
00F000
00F000
00F000
00F000
00F000
00F000
00F000
00F000
00F000
00F000
00F000
00F000
00F000
00F000
00F000
00F000
00F000
00F000
ENDCHAR
STARTCHAR 085
ENCODING 85
SWIDTH 1728 0
DWIDTH 24 0
BBX 20 24 0 4
BITMAP
F000F0
F000F0
F000F0
F000F0
F000F0
F000F0
F000F0
F000F0
F000F0
F000F0
F000F0
F000F0
F000F0
F000F0
F000F0
F000F0
F000F0
F000F0
F000F0
F801F0
7FFFE0
3FFFC0
1FFF80
0FFF00
ENDCHAR
STARTCHAR 086
ENCODING 86
SWIDTH 1728 0
DWIDTH 24 0
BBX 20 24 0 4
BITMAP
F000F0
F000F0
F000F0
F000F0
F000F0
F000F0
F000F0
F000F0
F000F0
F000F0
F000F0
F000F0
F000F0
F000F0
F000F0
F801F0
7C03E0
3E07C0
1F0F80
0F9F00
07FE00
03FC00
01F800
00F000
ENDCHAR
STARTCHAR 087
ENCODING 87
SWIDTH 1728 0
DWIDTH 24 0
BBX 20 24 0 4
BITMAP
F000F0
F000F0
F000F0
F000F0
F000F0
F000F0
F000F0
F000F0
F000F0
F000F0
F000F0
F000F0
F000F0
F000F0
F0F0F0
F0F0F0
F0F0F0
F0F0F0
F0F0F0
F9F9F0
7FFFE0
3FFFC0
1F9F80
0F0F00
ENDCHAR
STARTCHAR 088
ENCODING 88
SWIDTH 1728 0
DWIDTH 24 0
BBX 20 24 0 4
BITMAP
F000F0
F000F0
F000F0
F000F0
F000F0
F801F0
7C03E0
3E07C0
1F0F80
0F9F00
07FE00
03FC00
03FC00
07FE00
0F9F00
1F0F80
3E07C0
7C03E0
F801F0
F000F0
F000F0
F000F0
F000F0
F000F0
ENDCHAR
STARTCHAR 089
ENCODING 89
SWIDTH 1728 0
DWIDTH 24 0
BBX 20 24 0 4
BITMAP
F000F0
F000F0
F000F0
F000F0
F000F0
F000F0
F801F0
7C03E0
3E07C0
1F0F80
0FFF00
07FE00
03FC00
01F800
00F000
00F000
00F000
00F000
00F000
00F000
00F000
00F000
00F000
00F000
ENDCHAR
STARTCHAR 090
ENCODING 90
SWIDTH 1728 0
DWIDTH 24 0
BBX 20 24 0 4
BITMAP
FFFFF0
FFFFF0
FFFFF0
FFFFF0
0000F0
0001F0
0003F0
0007E0
000FC0
001F80
003F00
007E00
00FC00
01F800
03F000
07E000
0FC000
1F8000
3F0000
7E0000
FFFFF0
FFFFF0
FFFFF0
FFFFF0
ENDCHAR
STARTCHAR 091
ENCODING 91
SWIDTH 1728 0
DWIDTH 24 0
BBX 12 30 4 1
BITMAP
FFF0
FFF0
FFF0
F000
F000
F000
F000
F000
F000
F000
F000
F000
F000
F000
F000
F000
F000
F000
F000
F000
F000
F000
F000
F000
F000
F000
F000
FFF0
FFF0
FFF0
ENDCHAR
STARTCHAR 092
ENCODING 92
SWIDTH 1728 0
DWIDTH 24 0
BBX 20 24 0 4
BITMAP
E00000
F00000
F80000
FC0000
7E0000
3F0000
1F8000
0F8000
0FC000
07E000
03F000
01F800
00F800
007C00
003E00
001F00
001F80
000FC0
0007C0
0007E0
0003F0
0001F0
0000F0
000070
ENDCHAR
STARTCHAR 093
ENCODING 93
SWIDTH 1728 0
DWIDTH 24 0
BBX 12 30 4 1
BITMAP
FFF0
FFF0
FFF0
00F0
00F0
00F0
00F0
00F0
00F0
00F0
00F0
00F0
00F0
00F0
00F0
00F0
00F0
00F0
00F0
00F0
00F0
00F0
00F0
00F0
00F0
00F0
00F0
FFF0
FFF0
FFF0
ENDCHAR
STARTCHAR 094
ENCODING 94
SWIDTH 1728 0
DWIDTH 24 0
BBX 20 11 0 21
BITMAP
00F000
01F800
03FC00
07FE00
0F9F00
1F0F80
3E07C0
7C03E0
F801F0
F000F0
E00070
ENDCHAR
STARTCHAR 095
ENCODING 95
SWIDTH 1728 0
DWIDTH 24 0
BBX 20 3 0 -2
BITMAP
FFFFF0
FFFFF0
FFFFF0
ENDCHAR
STARTCHAR 096
ENCODING 96
SWIDTH 1728 0
DWIDTH 24 0
BBX 12 11 4 20
BITMAP
F000
F800
FC00
7E00
3F00
1F80
0FC0
07E0
03F0
01F0
00F0
ENDCHAR
STARTCHAR 097
ENCODING 97
SWIDTH 1728 0
DWIDTH 24 0
BBX 20 17 0 4
BITMAP
0FFF80
0FFFC0
0FFFE0
0001F0
0000F0
0000F0
0FFFF0
1FFFF0
3FFFF0
7FFFF0
F800F0
F000F0
F800F0
7FFFF0
3FFFF0
1FFFF0
0FFFF0
ENDCHAR
STARTCHAR 098
ENCODING 98
SWIDTH 1728 0
DWIDTH 24 0
BBX 20 24 0 4
BITMAP
F00000
F00000
F00000
F00000
F00000
F00000
F00000
FFFF80
FFFFC0
FFFFE0
F001F0
F000F0
F000F0
F000F0
F000F0
F000F0
F000F0
F000F0
F000F0
F001F0
FFFFE0
FFFFC0
FFFF80
FFFF00
ENDCHAR
STARTCHAR 099
ENCODING 99
SWIDTH 1728 0
DWIDTH 24 0
BBX 20 17 0 4
BITMAP
1FFF00
3FFF00
7FFF00
F80000
F00000
F00000
F00000
F00000
F00000
F00000
F000F0
F000F0
F801F0
7FFFE0
3FFFC0
1FFF80
0FFF00
ENDCHAR
STARTCHAR 100
ENCODING 100
SWIDTH 1728 0
DWIDTH 24 0
BBX 20 24 0 4
BITMAP
0000F0
0000F0
0000F0
0000F0
0000F0
0000F0
0000F0
1FFFF0
3FFFF0
7FFFF0
F800F0
F000F0
F000F0
F000F0
F000F0
F000F0
F000F0
F000F0
F000F0
F800F0
7FFFF0
3FFFF0
1FFFF0
0FFFF0
ENDCHAR
STARTCHAR 101
ENCODING 101
SWIDTH 1728 0
DWIDTH 24 0
BBX 20 17 0 4
BITMAP
1FFF80
3FFFC0
7FFFE0
F801F0
F000F0
F000F0
F001F0
FFFFE0
FFFFC0
FFFF80
F00000
F00000
F80000
7FFF00
3FFF00
1FFF00
0FFF00
ENDCHAR
STARTCHAR 102
ENCODING 102
SWIDTH 1728 0
DWIDTH 24 0
BBX 20 24 0 4
BITMAP
00FF00
01FF80
03FFC0
07FFE0
0F81F0
0F00F0
0F0070
0F0000
0F0000
0F0000
FFF000
FFF000
FFF000
FFF000
0F0000
0F0000
0F0000
0F0000
0F0000
0F0000
0F0000
0F0000
0F0000
0F0000
ENDCHAR
STARTCHAR 103
ENCODING 103
SWIDTH 1728 0
DWIDTH 24 0
BBX 20 23 0 -2
BITMAP
1FFF80
3FFFC0
7FFFE0
F801F0
F000F0
F000F0
F000F0
F000F0
F000F0
F000F0
F000F0
F000F0
F800F0
7FFFF0
3FFFF0
1FFFF0
0FFFF0
0000F0
0000F0
0001F0
0FFFE0
0FFFC0
0FFF80
ENDCHAR
STARTCHAR 104
ENCODING 104
SWIDTH 1728 0
DWIDTH 24 0
BBX 20 24 0 4
BITMAP
F00000
F00000
F00000
F00000
F00000
F00000
F00000
FFFF80
FFFFC0
FFFFE0
F001F0
F000F0
F000F0
F000F0
F000F0
F000F0
F000F0
F000F0
F000F0
F000F0
F000F0
F000F0
F000F0
F000F0
ENDCHAR
STARTCHAR 105
ENCODING 105
SWIDTH 1728 0
DWIDTH 24 0
BBX 12 24 4 4
BITMAP
0F00
0F00
0F00
0F00
0000
0000
0000
FF00
FF00
FF00
0F00
0F00
0F00
0F00
0F00
0F00
0F00
0F00
0F00
0F00
FFF0
FFF0
FFF0
FFF0
ENDCHAR
STARTCHAR 106
ENCODING 106
SWIDTH 1728 0
DWIDTH 24 0
BBX 16 30 4 -2
BITMAP
000F
000F
000F
000F
0000
0000
0000
00FF
00FF
00FF
000F
000F
000F
000F
000F
000F
000F
000F
000F
000F
000F
000F
000F
000F
E00F
F00F
F81F
7FFE
3FFC
1FF8
ENDCHAR
STARTCHAR 107
ENCODING 107
SWIDTH 1728 0
DWIDTH 24 0
BBX 20 24 0 4
BITMAP
F00000
F00000
F00000
F00000
F00000
F00000
F00000
F000F0
F001F0
F003E0
F007C0
F00F80
F01F00
F03E00
FFFC00
FFF800
FFFC00
F03E00
F01F00
F00F80
F007C0
F003E0
F001F0
F000F0
ENDCHAR
STARTCHAR 108
ENCODING 108
SWIDTH 1728 0
DWIDTH 24 0
BBX 12 24 4 4
BITMAP
FF00
FF00
FF00
FF00
0F00
0F00
0F00
0F00
0F00
0F00
0F00
0F00
0F00
0F00
0F00
0F00
0F00
0F00
0F00
0F00
FFF0
FFF0
FFF0
FFF0
ENDCHAR
STARTCHAR 109
ENCODING 109
SWIDTH 1728 0
DWIDTH 24 0
BBX 20 17 0 4
BITMAP
FF0F80
FF9FC0
FFFFE0
F1F9F0
F0F0F0
F0F0F0
F0F0F0
F0F0F0
F0F0F0
F0F0F0
F0F0F0
F0F0F0
F0F0F0
F0F0F0
F0F0F0
F0F0F0
F0F0F0
ENDCHAR
STARTCHAR 110
ENCODING 110
SWIDTH 1728 0
DWIDTH 24 0
BBX 20 17 0 4
BITMAP
F1FF80
F3FFC0
F7FFE0
FF81F0
FF00F0
FE00F0
FC00F0
F800F0
F000F0
F000F0
F000F0
F000F0
F000F0
F000F0
F000F0
F000F0
F000F0
ENDCHAR
STARTCHAR 111
ENCODING 111
SWIDTH 1728 0
DWIDTH 24 0
BBX 20 18 0 4
BITMAP
0FFF00
1FFF80
3FFFC0
7FFFE0
F801F0
F000F0
F000F0
F000F0
F000F0
F000F0
F000F0
F000F0
F000F0
F801F0
7FFFE0
3FFFC0
1FFF80
0FFF00
ENDCHAR
STARTCHAR 112
ENCODING 112
SWIDTH 1728 0
DWIDTH 24 0
BBX 20 23 0 -2
BITMAP
FFFF80
FFFFC0
FFFFE0
F001F0
F000F0
F000F0
F000F0
F000F0
F000F0
F000F0
F000F0
F000F0
F001F0
FFFFE0
FFFFC0
FFFF80
FFFF00
F00000
F00000
F00000
F00000
F00000
F00000
ENDCHAR
STARTCHAR 113
ENCODING 113
SWIDTH 1728 0
DWIDTH 24 0
BBX 20 23 0 -2
BITMAP
1FFFF0
3FFFF0
7FFFF0
F800F0
F000F0
F000F0
F000F0
F000F0
F000F0
F000F0
F000F0
F000F0
F800F0
7FFFF0
3FFFF0
1FFFF0
0FFFF0
0000F0
0000F0
0000F0
0000F0
0000F0
0000F0
ENDCHAR
STARTCHAR 114
ENCODING 114
SWIDTH 1728 0
DWIDTH 24 0
BBX 20 17 0 4
BITMAP
F1FF80
F3FFC0
F7FFE0
FF81F0
FF00F0
FE0070
FC0030
F80000
F00000
F00000
F00000
F00000
F00000
F00000
F00000
F00000
F00000
ENDCHAR
STARTCHAR 115
ENCODING 115
SWIDTH 1728 0
DWIDTH 24 0
BBX 20 17 0 4
BITMAP
1FFFF0
3FFFF0
7FFFF0
F80000
F00000
F00000
F80000
7FFF80
3FFFC0
1FFFE0
0001F0
0000F0
0001F0
FFFFE0
FFFFC0
FFFF80
FFFF00
ENDCHAR
STARTCHAR 116
ENCODING 116
SWIDTH 1728 0
DWIDTH 24 0
BBX 20 24 0 4
BITMAP
00F000
00F000
00F000
00F000
00F000
00F000
00F000
FFFFF0
FFFFF0
FFFFF0
00F000
00F000
00F000
00F000
00F000
00F000
00F000
00F000
00F000
00F800
007FF0
003FF0
001FF0
000FF0
ENDCHAR
STARTCHAR 117
ENCODING 117
SWIDTH 1728 0
DWIDTH 24 0
BBX 20 17 0 4
BITMAP
F000F0
F000F0
F000F0
F000F0
F000F0
F000F0
F000F0
F000F0
F001F0
F003F0
F007F0
F00FF0
F81FF0
7FFEF0
3FFCF0
1FF8F0
0FF0F0
ENDCHAR
STARTCHAR 118
ENCODING 118
SWIDTH 1728 0
DWIDTH 24 0
BBX 20 17 0 4
BITMAP
F000F0
F000F0
F000F0
F000F0
F000F0
F000F0
F000F0
F000F0
F801F0
7C03E0
3E07C0
1F0F80
0F9F00
07FE00
03FC00
01F800
00F000
ENDCHAR
STARTCHAR 119
ENCODING 119
SWIDTH 1728 0
DWIDTH 24 0
BBX 20 17 0 4
BITMAP
F000F0
F000F0
F000F0
F000F0
F000F0
F000F0
F000F0
F0F0F0
F0F0F0
F0F0F0
F0F0F0
F0F0F0
F9F9F0
7FFFE0
3FFFC0
1F9F80
0F0F00
ENDCHAR
STARTCHAR 120
ENCODING 120
SWIDTH 1728 0
DWIDTH 24 0
BBX 19 16 0 4
BITMAP
F803E0
7C07C0
3E0F80
1F1F00
0FBE00
07FC00
03F800
01F000
01F000
03F800
07BC00
0F1E00
1E0F00
3C0780
7803C0
F001E0
ENDCHAR
STARTCHAR 121
ENCODING 121
SWIDTH 1728 0
DWIDTH 24 0
BBX 20 23 0 -2
BITMAP
F000F0
F000F0
F000F0
F000F0
F000F0
F000F0
F000F0
F000F0
F801F0
7C03E0
3E07C0
1F0F80
0F9F00
07FE00
03FC00
00F800
01F000
03E000
07C000
0F8000
FF0000
FE0000
FC0000
ENDCHAR
STARTCHAR 122
ENCODING 122
SWIDTH 1728 0
DWIDTH 24 0
BBX 20 17 0 4
BITMAP
FFFFF0
FFFFF0
FFFFF0
001F80
003F00
007E00
00FC00
01F800
03F000
07E000
0FC000
1F8000
3F0000
FFFFF0
FFFFF0
FFFFF0
FFFFF0
ENDCHAR
STARTCHAR 123
ENCODING 123
SWIDTH 1728 0
DWIDTH 24 0
BBX 12 30 4 1
BITMAP
00F0
01F0
03E0
0780
0F00
0F00
0F00
0F00
0F00
0F00
1F00
3F00
7E00
F800
F000
F000
F800
7E00
3F00
1F00
0F00
0F00
0F00
0F00
0F00
0F00
0780
03E0
01F0
00F0
ENDCHAR
STARTCHAR 124
ENCODING 124
SWIDTH 1728 0
DWIDTH 24 0
BBX 4 30 8 1
BITMAP
F0
F0
F0
F0
F0
F0
F0
F0
F0
F0
F0
F0
F0
F0
F0
F0
F0
F0
F0
F0
F0
F0
F0
F0
F0
F0
F0
F0
F0
F0
ENDCHAR
STARTCHAR 125
ENCODING 125
SWIDTH 1728 0
DWIDTH 24 0
BBX 12 30 4 1
BITMAP
F000
F800
7C00
3E00
1F00
0F00
0F00
0F00
0F00
0F00
0F80
0FC0
07E0
01F0
00F0
00F0
01F0
07E0
0FC0
0F80
0F00
0F00
0F00
0F00
0F00
1F00
3E00
7C00
F800
F000
ENDCHAR
STARTCHAR 126
ENCODING 126
SWIDTH 1728 0
DWIDTH 24 0
BBX 20 10 0 11
BITMAP
1F00F0
3F80F0
7FC0F0
F3E0F0
F1F0F0
F0F8F0
F07DF0
F03FE0
F01FC0
F00F80
ENDCHAR
STARTCHAR 127
ENCODING 127
SWIDTH 1368 0
DWIDTH 19 0
BBX 0 0 0 0
BITMAP
ENDCHAR
STARTCHAR 128
ENCODING 128
SWIDTH 1368 0
DWIDTH 19 0
BBX 0 0 0 0
BITMAP
ENDCHAR
STARTCHAR 129
ENCODING 129
SWIDTH 1368 0
DWIDTH 19 0
BBX 0 0 0 0
BITMAP
ENDCHAR
STARTCHAR 130
ENCODING 130
SWIDTH 1368 0
DWIDTH 19 0
BBX 0 0 0 0
BITMAP
ENDCHAR
STARTCHAR 131
ENCODING 131
SWIDTH 1368 0
DWIDTH 19 0
BBX 0 0 0 0
BITMAP
ENDCHAR
STARTCHAR 132
ENCODING 132
SWIDTH 1368 0
DWIDTH 19 0
BBX 0 0 0 0
BITMAP
ENDCHAR
STARTCHAR 133
ENCODING 133
SWIDTH 1368 0
DWIDTH 19 0
BBX 0 0 0 0
BITMAP
ENDCHAR
STARTCHAR 134
ENCODING 134
SWIDTH 1368 0
DWIDTH 19 0
BBX 0 0 0 0
BITMAP
ENDCHAR
STARTCHAR 135
ENCODING 135
SWIDTH 1368 0
DWIDTH 19 0
BBX 0 0 0 0
BITMAP
ENDCHAR
STARTCHAR 136
ENCODING 136
SWIDTH 1368 0
DWIDTH 19 0
BBX 0 0 0 0
BITMAP
ENDCHAR
STARTCHAR 137
ENCODING 137
SWIDTH 1368 0
DWIDTH 19 0
BBX 0 0 0 0
BITMAP
ENDCHAR
STARTCHAR 138
ENCODING 138
SWIDTH 1368 0
DWIDTH 19 0
BBX 0 0 0 0
BITMAP
ENDCHAR
STARTCHAR 139
ENCODING 139
SWIDTH 1368 0
DWIDTH 19 0
BBX 0 0 0 0
BITMAP
ENDCHAR
STARTCHAR 140
ENCODING 140
SWIDTH 1368 0
DWIDTH 19 0
BBX 0 0 0 0
BITMAP
ENDCHAR
STARTCHAR 141
ENCODING 141
SWIDTH 1368 0
DWIDTH 19 0
BBX 0 0 0 0
BITMAP
ENDCHAR
STARTCHAR 142
ENCODING 142
SWIDTH 1368 0
DWIDTH 19 0
BBX 0 0 0 0
BITMAP
ENDCHAR
STARTCHAR 143
ENCODING 143
SWIDTH 1368 0
DWIDTH 19 0
BBX 0 0 0 0
BITMAP
ENDCHAR
STARTCHAR 144
ENCODING 144
SWIDTH 1368 0
DWIDTH 19 0
BBX 0 0 0 0
BITMAP
ENDCHAR
STARTCHAR 145
ENCODING 145
SWIDTH 1368 0
DWIDTH 19 0
BBX 0 0 0 0
BITMAP
ENDCHAR
STARTCHAR 146
ENCODING 146
SWIDTH 1368 0
DWIDTH 19 0
BBX 0 0 0 0
BITMAP
ENDCHAR
STARTCHAR 147
ENCODING 147
SWIDTH 1368 0
DWIDTH 19 0
BBX 0 0 0 0
BITMAP
ENDCHAR
STARTCHAR 148
ENCODING 148
SWIDTH 1368 0
DWIDTH 19 0
BBX 0 0 0 0
BITMAP
ENDCHAR
STARTCHAR 149
ENCODING 149
SWIDTH 1368 0
DWIDTH 19 0
BBX 0 0 0 0
BITMAP
ENDCHAR
STARTCHAR 150
ENCODING 150
SWIDTH 1368 0
DWIDTH 19 0
BBX 0 0 0 0
BITMAP
ENDCHAR
STARTCHAR 151
ENCODING 151
SWIDTH 1368 0
DWIDTH 19 0
BBX 0 0 0 0
BITMAP
ENDCHAR
STARTCHAR 152
ENCODING 152
SWIDTH 1368 0
DWIDTH 19 0
BBX 0 0 0 0
BITMAP
ENDCHAR
STARTCHAR 153
ENCODING 153
SWIDTH 1368 0
DWIDTH 19 0
BBX 0 0 0 0
BITMAP
ENDCHAR
STARTCHAR 154
ENCODING 154
SWIDTH 1368 0
DWIDTH 19 0
BBX 0 0 0 0
BITMAP
ENDCHAR
STARTCHAR 155
ENCODING 155
SWIDTH 1368 0
DWIDTH 19 0
BBX 0 0 0 0
BITMAP
ENDCHAR
STARTCHAR 156
ENCODING 156
SWIDTH 1368 0
DWIDTH 19 0
BBX 0 0 0 0
BITMAP
ENDCHAR
STARTCHAR 157
ENCODING 157
SWIDTH 1368 0
DWIDTH 19 0
BBX 0 0 0 0
BITMAP
ENDCHAR
STARTCHAR 158
ENCODING 158
SWIDTH 1368 0
DWIDTH 19 0
BBX 0 0 0 0
BITMAP
ENDCHAR
STARTCHAR 159
ENCODING 159
SWIDTH 1368 0
DWIDTH 19 0
BBX 0 0 0 0
BITMAP
ENDCHAR
STARTCHAR 160
ENCODING 160
SWIDTH 1728 0
DWIDTH 24 0
BBX 0 0 0 0
BITMAP
ENDCHAR
STARTCHAR 161
ENCODING 161
SWIDTH 1728 0
DWIDTH 24 0
BBX 4 24 8 4
BITMAP
F0
F0
F0
F0
00
00
00
F0
F0
F0
F0
F0
F0
F0
F0
F0
F0
F0
F0
F0
F0
F0
F0
F0
ENDCHAR
STARTCHAR 162
ENCODING 162
SWIDTH 1728 0
DWIDTH 24 0
BBX 20 23 0 1
BITMAP
00F000
00F000
00F000
0FFF00
0FFF00
0FFF00
F0F0F0
F0F0F0
F0F0F0
F0F0F0
F0F000
F0F000
F0F000
F0F0F0
F0F0F0
F0F0F0
0FFF00
0FFF00
0FFF00
0FFF00
00F000
00F000
00F000
ENDCHAR
STARTCHAR 163
ENCODING 163
SWIDTH 1728 0
DWIDTH 24 0
BBX 20 24 0 4
BITMAP
00FF00
00FF00
00FF00
00FF00
0F00F0
0F00F0
0F00F0
0F0000
0F0000
0F0000
FFF000
FFF000
FFF000
FFF000
0F0000
0F0000
0F0000
0F00F0
0F00F0
0F00F0
F0FF00
F0FF00
F0FF00
F0FF00
ENDCHAR
STARTCHAR 164
ENCODING 164
SWIDTH 1728 0
DWIDTH 24 0
BBX 20 17 0 4
BITMAP
F0F0F0
F0F0F0
F0F0F0
0F0F00
0F0F00
0F0F00
0F0F00
F000F0
F000F0
F000F0
0F0F00
0F0F00
0F0F00
F0F0F0
F0F0F0
F0F0F0
F0F0F0
ENDCHAR
STARTCHAR 165
ENCODING 165
SWIDTH 1728 0
DWIDTH 24 0
BBX 20 24 0 4
BITMAP
F000F0
F000F0
F000F0
F000F0
0F0F00
0F0F00
0F0F00
FFFFF0
FFFFF0
FFFFF0
00F000
00F000
00F000
00F000
FFFFF0
FFFFF0
FFFFF0
00F000
00F000
00F000
00F000
00F000
00F000
00F000
ENDCHAR
STARTCHAR 166
ENCODING 166
SWIDTH 1728 0
DWIDTH 24 0
BBX 4 24 8 4
BITMAP
F0
F0
F0
F0
F0
F0
F0
F0
F0
F0
00
00
00
00
F0
F0
F0
F0
F0
F0
F0
F0
F0
F0
ENDCHAR
STARTCHAR 167
ENCODING 167
SWIDTH 1728 0
DWIDTH 24 0
BBX 16 27 4 4
BITMAP
0FFF
0FFF
0FFF
F000
F000
F000
F000
0FF0
0FF0
0FF0
F00F
F00F
F00F
F00F
F00F
F00F
F00F
0FF0
0FF0
0FF0
000F
000F
000F
FFF0
FFF0
FFF0
FFF0
ENDCHAR
STARTCHAR 168
ENCODING 168
SWIDTH 1728 0
DWIDTH 24 0
BBX 12 3 4 28
BITMAP
F0F0
F0F0
F0F0
ENDCHAR
STARTCHAR 169
ENCODING 169
SWIDTH 1728 0
DWIDTH 24 0
BBX 24 24 0 4
BITMAP
0FFFF0
0FFFF0
0FFFF0
0FFFF0
F0000F
F0000F
F0000F
F0FF0F
F0FF0F
F0FF0F
F0F00F
F0F00F
F0F00F
F0F00F
F0FF0F
F0FF0F
F0FF0F
F0000F
F0000F
F0000F
0FFFF0
0FFFF0
0FFFF0
0FFFF0
ENDCHAR
STARTCHAR 170
ENCODING 170
SWIDTH 1728 0
DWIDTH 24 0
BBX 12 16 4 18
BITMAP
0FF0
0FF0
0FF0
F0F0
F0F0
F0F0
0FF0
0FF0
0FF0
0FF0
0000
0000
0000
FFF0
FFF0
FFF0
ENDCHAR
STARTCHAR 171
ENCODING 171
SWIDTH 1728 0
DWIDTH 24 0
BBX 20 17 0 4
BITMAP
00F0F0
00F0F0
00F0F0
0F0F00
0F0F00
0F0F00
0F0F00
F0F000
F0F000
F0F000
0F0F00
0F0F00
0F0F00
00F0F0
00F0F0
00F0F0
00F0F0
ENDCHAR
STARTCHAR 172
ENCODING 172
SWIDTH 1728 0
DWIDTH 24 0
BBX 20 10 0 8
BITMAP
FFFFF0
FFFFF0
FFFFF0
FFFFF0
0000F0
0000F0
0000F0
0000F0
0000F0
0000F0
ENDCHAR
STARTCHAR 173
ENCODING 173
SWIDTH 1728 0
DWIDTH 24 0
BBX 12 4 4 14
BITMAP
FFF0
FFF0
FFF0
FFF0
ENDCHAR
STARTCHAR 174
ENCODING 174
SWIDTH 1728 0
DWIDTH 24 0
BBX 24 24 0 4
BITMAP
0FFFF0
0FFFF0
0FFFF0
0FFFF0
F0000F
F0000F
F0000F
F0FF0F
F0FF0F
F0FF0F
F0F00F
F0F00F
F0F00F
F0F00F
F0F00F
F0F00F
F0F00F
F0000F
F0000F
F0000F
0FFFF0
0FFFF0
0FFFF0
0FFFF0
ENDCHAR
STARTCHAR 175
ENCODING 175
SWIDTH 1728 0
DWIDTH 24 0
BBX 20 3 0 28
BITMAP
FFFFF0
FFFFF0
FFFFF0
ENDCHAR
STARTCHAR 176
ENCODING 176
SWIDTH 1728 0
DWIDTH 24 0
BBX 16 13 4 21
BITMAP
0FF0
0FF0
0FF0
F00F
F00F
F00F
F00F
F00F
F00F
F00F
0FF0
0FF0
0FF0
ENDCHAR
STARTCHAR 177
ENCODING 177
SWIDTH 1728 0
DWIDTH 24 0
BBX 20 24 0 4
BITMAP
00F000
00F000
00F000
00F000
00F000
00F000
00F000
FFFFF0
FFFFF0
FFFFF0
00F000
00F000
00F000
00F000
00F000
00F000
00F000
000000
000000
000000
FFFFF0
FFFFF0
FFFFF0
FFFFF0
ENDCHAR
STARTCHAR 178
ENCODING 178
SWIDTH 1728 0
DWIDTH 24 0
BBX 12 16 4 18
BITMAP
0F00
0F00
0F00
F0F0
F0F0
F0F0
00F0
00F0
00F0
00F0
0F00
0F00
0F00
FFF0
FFF0
FFF0
ENDCHAR
STARTCHAR 179
ENCODING 179
SWIDTH 1728 0
DWIDTH 24 0
BBX 12 16 4 18
BITMAP
FF00
FF00
FF00
00F0
00F0
00F0
0F00
0F00
0F00
0F00
00F0
00F0
00F0
FF00
FF00
FF00
ENDCHAR
STARTCHAR 180
ENCODING 180
SWIDTH 1728 0
DWIDTH 24 0
BBX 12 10 4 21
BITMAP
00F0
00F0
00F0
0F00
0F00
0F00
0F00
F000
F000
F000
ENDCHAR
STARTCHAR 181
ENCODING 181
SWIDTH 1728 0
DWIDTH 24 0
BBX 20 23 0 -2
BITMAP
F000F0
F000F0
F000F0
F000F0
F000F0
F000F0
F000F0
F000F0
F000F0
F000F0
F00FF0
F00FF0
F00FF0
FFF0F0
FFF0F0
FFF0F0
FFF0F0
F00000
F00000
F00000
F00000
F00000
F00000
ENDCHAR
STARTCHAR 182
ENCODING 182
SWIDTH 1728 0
DWIDTH 24 0
BBX 20 27 0 4
BITMAP
0FFFF0
0FFFF0
0FFFF0
FFF0F0
FFF0F0
FFF0F0
FFF0F0
FFF0F0
FFF0F0
FFF0F0
FFF0F0
FFF0F0
FFF0F0
0FF0F0
0FF0F0
0FF0F0
0FF0F0
00F0F0
00F0F0
00F0F0
00F0F0
00F0F0
00F0F0
00F0F0
00F0F0
00F0F0
00F0F0
ENDCHAR
STARTCHAR 183
ENCODING 183
SWIDTH 1728 0
DWIDTH 24 0
BBX 8 7 8 14
BITMAP
FF
FF
FF
FF
FF
FF
FF
ENDCHAR
STARTCHAR 184
ENCODING 184
SWIDTH 1728 0
DWIDTH 24 0
BBX 12 6 4 -2
BITMAP
00F0
00F0
00F0
FF00
FF00
FF00
ENDCHAR
STARTCHAR 185
ENCODING 185
SWIDTH 1728 0
DWIDTH 24 0
BBX 12 16 4 18
BITMAP
0F00
0F00
0F00
FF00
FF00
FF00
0F00
0F00
0F00
0F00
0F00
0F00
0F00
FFF0
FFF0
FFF0
ENDCHAR
STARTCHAR 186
ENCODING 186
SWIDTH 1728 0
DWIDTH 24 0
BBX 12 17 4 21
BITMAP
0F00
0F00
0F00
0F00
F0F0
F0F0
F0F0
0F00
0F00
0F00
0000
0000
0000
0000
FFF0
FFF0
FFF0
ENDCHAR
STARTCHAR 187
ENCODING 187
SWIDTH 1728 0
DWIDTH 24 0
BBX 20 17 0 4
BITMAP
F0F000
F0F000
F0F000
0F0F00
0F0F00
0F0F00
0F0F00
00F0F0
00F0F0
00F0F0
0F0F00
0F0F00
0F0F00
F0F000
F0F000
F0F000
F0F000
ENDCHAR
STARTCHAR 188
ENCODING 188
SWIDTH 1728 0
DWIDTH 24 0
BBX 20 34 0 4
BITMAP
0F0000
0F0000
0F0000
0F0000
FF0000
FF0000
FF0000
0F00F0
0F00F0
0F00F0
0F0F00
0F0F00
0F0F00
0F0F00
0FF000
0FF000
0FF000
0F0F00
0F0F00
0F0F00
F0FF00
F0FF00
F0FF00
F0FF00
0F0F00
0F0F00
0F0F00
0FFFF0
0FFFF0
0FFFF0
000F00
000F00
000F00
000F00
ENDCHAR
STARTCHAR 189
ENCODING 189
SWIDTH 1728 0
DWIDTH 24 0
BBX 20 34 0 4
BITMAP
0F0000
0F0000
0F0000
0F0000
FF0000
FF0000
FF0000
0F00F0
0F00F0
0F00F0
0F0F00
0F0F00
0F0F00
0F0F00
0FF000
0FF000
0FF000
0F0F00
0F0F00
0F0F00
F0F0F0
F0F0F0
F0F0F0
F0F0F0
0000F0
0000F0
0000F0
000F00
000F00
000F00
00FFF0
00FFF0
00FFF0
00FFF0
ENDCHAR
STARTCHAR 190
ENCODING 190
SWIDTH 1728 0
DWIDTH 24 0
BBX 20 34 0 4
BITMAP
FF0000
FF0000
FF0000
FF0000
00F000
00F000
00F000
0F00F0
0F00F0
0F00F0
00FF00
00FF00
00FF00
00FF00
FFF000
FFF000
FFF000
0F0F00
0F0F00
0F0F00
F0FF00
F0FF00
F0FF00
F0FF00
0F0F00
0F0F00
0F0F00
0FFFF0
0FFFF0
0FFFF0
000F00
000F00
000F00
000F00
ENDCHAR
STARTCHAR 191
ENCODING 191
SWIDTH 1728 0
DWIDTH 24 0
BBX 20 24 0 4
BITMAP
00F000
00F000
00F000
00F000
000000
000000
000000
00F000
00F000
00F000
00F000
00F000
00F000
00F000
0F0000
0F0000
0F0000
F000F0
F000F0
F000F0
0FFF00
0FFF00
0FFF00
0FFF00
ENDCHAR
STARTCHAR 192
ENCODING 192
SWIDTH 1728 0
DWIDTH 24 0
BBX 20 34 0 4
BITMAP
0F0000
0F0000
0F0000
0F0000
00F000
00F000
00F000
000000
000000
000000
0FFF00
0FFF00
0FFF00
0FFF00
F000F0
F000F0
F000F0
F000F0
F000F0
F000F0
FFFFF0
FFFFF0
FFFFF0
FFFFF0
F000F0
F000F0
F000F0
F000F0
F000F0
F000F0
F000F0
F000F0
F000F0
F000F0
ENDCHAR
STARTCHAR 193
ENCODING 193
SWIDTH 1728 0
DWIDTH 24 0
BBX 20 34 0 4
BITMAP
000F00
000F00
000F00
000F00
00F000
00F000
00F000
000000
000000
000000
0FFF00
0FFF00
0FFF00
0FFF00
F000F0
F000F0
F000F0
F000F0
F000F0
F000F0
FFFFF0
FFFFF0
FFFFF0
FFFFF0
F000F0
F000F0
F000F0
F000F0
F000F0
F000F0
F000F0
F000F0
F000F0
F000F0
ENDCHAR
STARTCHAR 194
ENCODING 194
SWIDTH 1728 0
DWIDTH 24 0
BBX 20 34 0 4
BITMAP
00F000
00F000
00F000
00F000
0F0F00
0F0F00
0F0F00
000000
000000
000000
0FFF00
0FFF00
0FFF00
0FFF00
F000F0
F000F0
F000F0
F000F0
F000F0
F000F0
FFFFF0
FFFFF0
FFFFF0
FFFFF0
F000F0
F000F0
F000F0
F000F0
F000F0
F000F0
F000F0
F000F0
F000F0
F000F0
ENDCHAR
STARTCHAR 195
ENCODING 195
SWIDTH 1728 0
DWIDTH 24 0
BBX 20 34 0 4
BITMAP
0FF0F0
0FF0F0
0FF0F0
0FF0F0
F0FF00
F0FF00
F0FF00
000000
000000
000000
0FFF00
0FFF00
0FFF00
0FFF00
F000F0
F000F0
F000F0
F000F0
F000F0
F000F0
FFFFF0
FFFFF0
FFFFF0
FFFFF0
F000F0
F000F0
F000F0
F000F0
F000F0
F000F0
F000F0
F000F0
F000F0
F000F0
ENDCHAR
STARTCHAR 196
ENCODING 196
SWIDTH 1728 0
DWIDTH 24 0
BBX 20 30 0 4
BITMAP
0F0F00
0F0F00
0F0F00
000000
000000
000000
0FFF00
0FFF00
0FFF00
0FFF00
F000F0
F000F0
F000F0
F000F0
F000F0
F000F0
FFFFF0
FFFFF0
FFFFF0
FFFFF0
F000F0
F000F0
F000F0
F000F0
F000F0
F000F0
F000F0
F000F0
F000F0
F000F0
ENDCHAR
STARTCHAR 197
ENCODING 197
SWIDTH 1728 0
DWIDTH 24 0
BBX 20 34 0 4
BITMAP
00F000
00F000
00F000
00F000
0F0F00
0F0F00
0F0F00
00F000
00F000
00F000
0FFF00
0FFF00
0FFF00
0FFF00
F000F0
F000F0
F000F0
F000F0
F000F0
F000F0
FFFFF0
FFFFF0
FFFFF0
FFFFF0
F000F0
F000F0
F000F0
F000F0
F000F0
F000F0
F000F0
F000F0
F000F0
F000F0
ENDCHAR
STARTCHAR 198
ENCODING 198
SWIDTH 1728 0
DWIDTH 24 0
BBX 20 24 0 4
BITMAP
0FFFF0
0FFFF0
0FFFF0
0FFFF0
F0F000
F0F000
F0F000
F0F000
F0F000
F0F000
FFFF00
FFFF00
FFFF00
FFFF00
F0F000
F0F000
F0F000
F0F000
F0F000
F0F000
F0FFF0
F0FFF0
F0FFF0
F0FFF0
ENDCHAR
STARTCHAR 199
ENCODING 199
SWIDTH 1728 0
DWIDTH 24 0
BBX 20 30 0 -2
BITMAP
0FFF00
0FFF00
0FFF00
0FFF00
F000F0
F000F0
F000F0
F00000
F00000
F00000
F00000
F00000
F00000
F00000
F00000
F00000
F00000
F000F0
F000F0
F000F0
0FFF00
0FFF00
0FFF00
0FFF00
000F00
000F00
000F00
0FF000
0FF000
0FF000
ENDCHAR
STARTCHAR 200
ENCODING 200
SWIDTH 1728 0
DWIDTH 24 0
BBX 20 34 0 4
BITMAP
0F0000
0F0000
0F0000
0F0000
00F000
00F000
00F000
000000
000000
000000
FFFFF0
FFFFF0
FFFFF0
FFFFF0
F00000
F00000
F00000
F00000
F00000
F00000
FFFF00
FFFF00
FFFF00
FFFF00
F00000
F00000
F00000
F00000
F00000
F00000
FFFFF0
FFFFF0
FFFFF0
FFFFF0
ENDCHAR
STARTCHAR 201
ENCODING 201
SWIDTH 1728 0
DWIDTH 24 0
BBX 20 34 0 4
BITMAP
000F00
000F00
000F00
000F00
00F000
00F000
00F000
000000
000000
000000
FFFFF0
FFFFF0
FFFFF0
FFFFF0
F00000
F00000
F00000
F00000
F00000
F00000
FFFF00
FFFF00
FFFF00
FFFF00
F00000
F00000
F00000
F00000
F00000
F00000
FFFFF0
FFFFF0
FFFFF0
FFFFF0
ENDCHAR
STARTCHAR 202
ENCODING 202
SWIDTH 1728 0
DWIDTH 24 0
BBX 20 34 0 4
BITMAP
00F000
00F000
00F000
00F000
0F0F00
0F0F00
0F0F00
000000
000000
000000
FFFFF0
FFFFF0
FFFFF0
FFFFF0
F00000
F00000
F00000
F00000
F00000
F00000
FFFF00
FFFF00
FFFF00
FFFF00
F00000
F00000
F00000
F00000
F00000
F00000
FFFFF0
FFFFF0
FFFFF0
FFFFF0
ENDCHAR
STARTCHAR 203
ENCODING 203
SWIDTH 1728 0
DWIDTH 24 0
BBX 20 30 0 4
BITMAP
0F0F00
0F0F00
0F0F00
000000
000000
000000
FFFFF0
FFFFF0
FFFFF0
FFFFF0
F00000
F00000
F00000
F00000
F00000
F00000
FFFF00
FFFF00
FFFF00
FFFF00
F00000
F00000
F00000
F00000
F00000
F00000
FFFFF0
FFFFF0
FFFFF0
FFFFF0
ENDCHAR
STARTCHAR 204
ENCODING 204
SWIDTH 1728 0
DWIDTH 24 0
BBX 12 34 4 4
BITMAP
F000
F000
F000
F000
0F00
0F00
0F00
0000
0000
0000
FFF0
FFF0
FFF0
FFF0
0F00
0F00
0F00
0F00
0F00
0F00
0F00
0F00
0F00
0F00
0F00
0F00
0F00
0F00
0F00
0F00
FFF0
FFF0
FFF0
FFF0
ENDCHAR
STARTCHAR 205
ENCODING 205
SWIDTH 1728 0
DWIDTH 24 0
BBX 12 34 4 4
BITMAP
00F0
00F0
00F0
00F0
0F00
0F00
0F00
0000
0000
0000
FFF0
FFF0
FFF0
FFF0
0F00
0F00
0F00
0F00
0F00
0F00
0F00
0F00
0F00
0F00
0F00
0F00
0F00
0F00
0F00
0F00
FFF0
FFF0
FFF0
FFF0
ENDCHAR
STARTCHAR 206
ENCODING 206
SWIDTH 1728 0
DWIDTH 24 0
BBX 12 34 4 4
BITMAP
0F00
0F00
0F00
0F00
F0F0
F0F0
F0F0
0000
0000
0000
FFF0
FFF0
FFF0
FFF0
0F00
0F00
0F00
0F00
0F00
0F00
0F00
0F00
0F00
0F00
0F00
0F00
0F00
0F00
0F00
0F00
FFF0
FFF0
FFF0
FFF0
ENDCHAR
STARTCHAR 207
ENCODING 207
SWIDTH 1728 0
DWIDTH 24 0
BBX 12 30 4 4
BITMAP
F0F0
F0F0
F0F0
0000
0000
0000
FFF0
FFF0
FFF0
FFF0
0F00
0F00
0F00
0F00
0F00
0F00
0F00
0F00
0F00
0F00
0F00
0F00
0F00
0F00
0F00
0F00
FFF0
FFF0
FFF0
FFF0
ENDCHAR
STARTCHAR 208
ENCODING 208
SWIDTH 1728 0
DWIDTH 24 0
BBX 20 24 0 4
BITMAP
0FFF00
0FFF00
0FFF00
0FFF00
0F00F0
0F00F0
0F00F0
0F00F0
0F00F0
0F00F0
FFF0F0
FFF0F0
FFF0F0
FFF0F0
0F00F0
0F00F0
0F00F0
0F00F0
0F00F0
0F00F0
0FFF00
0FFF00
0FFF00
0FFF00
ENDCHAR
STARTCHAR 209
ENCODING 209
SWIDTH 1728 0
DWIDTH 24 0
BBX 20 34 0 4
BITMAP
0FF0F0
0FF0F0
0FF0F0
0FF0F0
F0FF00
F0FF00
F0FF00
000000
000000
000000
F000F0
F000F0
F000F0
F000F0
F000F0
F000F0
F000F0
FF00F0
FF00F0
FF00F0
F0F0F0
F0F0F0
F0F0F0
F0F0F0
F00FF0
F00FF0
F00FF0
F000F0
F000F0
F000F0
F000F0
F000F0
F000F0
F000F0
ENDCHAR
STARTCHAR 210
ENCODING 210
SWIDTH 1728 0
DWIDTH 24 0
BBX 20 34 0 4
BITMAP
0F0000
0F0000
0F0000
0F0000
00F000
00F000
00F000
000000
000000
000000
0FFF00
0FFF00
0FFF00
0FFF00
F000F0
F000F0
F000F0
F000F0
F000F0
F000F0
F000F0
F000F0
F000F0
F000F0
F000F0
F000F0
F000F0
F000F0
F000F0
F000F0
0FFF00
0FFF00
0FFF00
0FFF00
ENDCHAR
STARTCHAR 211
ENCODING 211
SWIDTH 1728 0
DWIDTH 24 0
BBX 20 34 0 4
BITMAP
000F00
000F00
000F00
000F00
00F000
00F000
00F000
000000
000000
000000
0FFF00
0FFF00
0FFF00
0FFF00
F000F0
F000F0
F000F0
F000F0
F000F0
F000F0
F000F0
F000F0
F000F0
F000F0
F000F0
F000F0
F000F0
F000F0
F000F0
F000F0
0FFF00
0FFF00
0FFF00
0FFF00
ENDCHAR
STARTCHAR 212
ENCODING 212
SWIDTH 1728 0
DWIDTH 24 0
BBX 20 34 0 4
BITMAP
00F000
00F000
00F000
00F000
0F0F00
0F0F00
0F0F00
000000
000000
000000
0FFF00
0FFF00
0FFF00
0FFF00
F000F0
F000F0
F000F0
F000F0
F000F0
F000F0
F000F0
F000F0
F000F0
F000F0
F000F0
F000F0
F000F0
F000F0
F000F0
F000F0
0FFF00
0FFF00
0FFF00
0FFF00
ENDCHAR
STARTCHAR 213
ENCODING 213
SWIDTH 1728 0
DWIDTH 24 0
BBX 20 34 0 4
BITMAP
0FF0F0
0FF0F0
0FF0F0
0FF0F0
F0FF00
F0FF00
F0FF00
000000
000000
000000
0FFF00
0FFF00
0FFF00
0FFF00
F000F0
F000F0
F000F0
F000F0
F000F0
F000F0
F000F0
F000F0
F000F0
F000F0
F000F0
F000F0
F000F0
F000F0
F000F0
F000F0
0FFF00
0FFF00
0FFF00
0FFF00
ENDCHAR
STARTCHAR 214
ENCODING 214
SWIDTH 1728 0
DWIDTH 24 0
BBX 20 30 0 4
BITMAP
0F0F00
0F0F00
0F0F00
000000
000000
000000
0FFF00
0FFF00
0FFF00
0FFF00
F000F0
F000F0
F000F0
F000F0
F000F0
F000F0
F000F0
F000F0
F000F0
F000F0
F000F0
F000F0
F000F0
F000F0
F000F0
F000F0
0FFF00
0FFF00
0FFF00
0FFF00
ENDCHAR
STARTCHAR 215
ENCODING 215
SWIDTH 1728 0
DWIDTH 24 0
BBX 20 16 0 8
BITMAP
F000F0
F000F0
F000F0
0F0F00
0F0F00
0F0F00
00F000
00F000
00F000
00F000
0F0F00
0F0F00
0F0F00
F000F0
F000F0
F000F0
ENDCHAR
STARTCHAR 216
ENCODING 216
SWIDTH 1728 0
DWIDTH 24 0
BBX 20 30 0 1
BITMAP
0000F0
0000F0
0000F0
0FFF00
0FFF00
0FFF00
0FFF00
F00FF0
F00FF0
F00FF0
F0F0F0
F0F0F0
F0F0F0
F0F0F0
F0F0F0
F0F0F0
F0F0F0
F0F0F0
F0F0F0
F0F0F0
FF00F0
FF00F0
FF00F0
0FFF00
0FFF00
0FFF00
0FFF00
F00000
F00000
F00000
ENDCHAR
STARTCHAR 217
ENCODING 217
SWIDTH 1728 0
DWIDTH 24 0
BBX 20 34 0 4
BITMAP
0F0000
0F0000
0F0000
0F0000
00F000
00F000
00F000
000000
000000
000000
F000F0
F000F0
F000F0
F000F0
F000F0
F000F0
F000F0
F000F0
F000F0
F000F0
F000F0
F000F0
F000F0
F000F0
F000F0
F000F0
F000F0
F000F0
F000F0
F000F0
0FFF00
0FFF00
0FFF00
0FFF00
ENDCHAR
STARTCHAR 218
ENCODING 218
SWIDTH 1728 0
DWIDTH 24 0
BBX 20 34 0 4
BITMAP
000F00
000F00
000F00
000F00
00F000
00F000
00F000
000000
000000
000000
F000F0
F000F0
F000F0
F000F0
F000F0
F000F0
F000F0
F000F0
F000F0
F000F0
F000F0
F000F0
F000F0
F000F0
F000F0
F000F0
F000F0
F000F0
F000F0
F000F0
0FFF00
0FFF00
0FFF00
0FFF00
ENDCHAR
STARTCHAR 219
ENCODING 219
SWIDTH 1728 0
DWIDTH 24 0
BBX 20 34 0 4
BITMAP
00F000
00F000
00F000
00F000
0F0F00
0F0F00
0F0F00
000000
000000
000000
F000F0
F000F0
F000F0
F000F0
F000F0
F000F0
F000F0
F000F0
F000F0
F000F0
F000F0
F000F0
F000F0
F000F0
F000F0
F000F0
F000F0
F000F0
F000F0
F000F0
0FFF00
0FFF00
0FFF00
0FFF00
ENDCHAR
STARTCHAR 220
ENCODING 220
SWIDTH 1728 0
DWIDTH 24 0
BBX 20 30 0 4
BITMAP
0F0F00
0F0F00
0F0F00
000000
000000
000000
F000F0
F000F0
F000F0
F000F0
F000F0
F000F0
F000F0
F000F0
F000F0
F000F0
F000F0
F000F0
F000F0
F000F0
F000F0
F000F0
F000F0
F000F0
F000F0
F000F0
0FFF00
0FFF00
0FFF00
0FFF00
ENDCHAR
STARTCHAR 221
ENCODING 221
SWIDTH 1728 0
DWIDTH 24 0
BBX 20 34 0 4
BITMAP
000F00
000F00
000F00
000F00
00F000
00F000
00F000
000000
000000
000000
F000F0
F000F0
F000F0
F000F0
F000F0
F000F0
F000F0
0F0F00
0F0F00
0F0F00
00F000
00F000
00F000
00F000
00F000
00F000
00F000
00F000
00F000
00F000
00F000
00F000
00F000
00F000
ENDCHAR
STARTCHAR 222
ENCODING 222
SWIDTH 1728 0
DWIDTH 24 0
BBX 16 24 4 4
BITMAP
F000
F000
F000
F000
FFF0
FFF0
FFF0
F00F
F00F
F00F
F00F
F00F
F00F
F00F
F00F
F00F
F00F
FFF0
FFF0
FFF0
F000
F000
F000
F000
ENDCHAR
STARTCHAR 223
ENCODING 223
SWIDTH 1728 0
DWIDTH 24 0
BBX 20 24 0 4
BITMAP
0FFF00
0FFF00
0FFF00
0FFF00
F000F0
F000F0
F000F0
F00F00
F00F00
F00F00
F0F000
F0F000
F0F000
F0F000
F00F00
F00F00
F00F00
F000F0
F000F0
F000F0
F0FF00
F0FF00
F0FF00
F0FF00
ENDCHAR
STARTCHAR 224
ENCODING 224
SWIDTH 1728 0
DWIDTH 24 0
BBX 20 27 0 4
BITMAP
0F0000
0F0000
0F0000
00F000
00F000
00F000
00F000
000000
000000
000000
0FFF00
0FFF00
0FFF00
0000F0
0000F0
0000F0
0000F0
0FFFF0
0FFFF0
0FFFF0
F000F0
F000F0
F000F0
0FFFF0
0FFFF0
0FFFF0
0FFFF0
ENDCHAR
STARTCHAR 225
ENCODING 225
SWIDTH 1728 0
DWIDTH 24 0
BBX 20 27 0 4
BITMAP
000F00
000F00
000F00
00F000
00F000
00F000
00F000
000000
000000
000000
0FFF00
0FFF00
0FFF00
0000F0
0000F0
0000F0
0000F0
0FFFF0
0FFFF0
0FFFF0
F000F0
F000F0
F000F0
0FFFF0
0FFFF0
0FFFF0
0FFFF0
ENDCHAR
STARTCHAR 226
ENCODING 226
SWIDTH 1728 0
DWIDTH 24 0
BBX 20 27 0 4
BITMAP
00F000
00F000
00F000
0F0F00
0F0F00
0F0F00
0F0F00
000000
000000
000000
0FFF00
0FFF00
0FFF00
0000F0
0000F0
0000F0
0000F0
0FFFF0
0FFFF0
0FFFF0
F000F0
F000F0
F000F0
0FFFF0
0FFFF0
0FFFF0
0FFFF0
ENDCHAR
STARTCHAR 227
ENCODING 227
SWIDTH 1728 0
DWIDTH 24 0
BBX 20 27 0 4
BITMAP
0FF0F0
0FF0F0
0FF0F0
F0FF00
F0FF00
F0FF00
F0FF00
000000
000000
000000
0FFF00
0FFF00
0FFF00
0000F0
0000F0
0000F0
0000F0
0FFFF0
0FFFF0
0FFFF0
F000F0
F000F0
F000F0
0FFFF0
0FFFF0
0FFFF0
0FFFF0
ENDCHAR
STARTCHAR 228
ENCODING 228
SWIDTH 1728 0
DWIDTH 24 0
BBX 20 24 0 4
BITMAP
0F0F00
0F0F00
0F0F00
0F0F00
000000
000000
000000
0FFF00
0FFF00
0FFF00
0000F0
0000F0
0000F0
0000F0
0FFFF0
0FFFF0
0FFFF0
F000F0
F000F0
F000F0
0FFFF0
0FFFF0
0FFFF0
0FFFF0
ENDCHAR
STARTCHAR 229
ENCODING 229
SWIDTH 1728 0
DWIDTH 24 0
BBX 20 27 0 4
BITMAP
00F000
00F000
00F000
0F0F00
0F0F00
0F0F00
0F0F00
00F000
00F000
00F000
0FFF00
0FFF00
0FFF00
0000F0
0000F0
0000F0
0000F0
0FFFF0
0FFFF0
0FFFF0
F000F0
F000F0
F000F0
0FFFF0
0FFFF0
0FFFF0
0FFFF0
ENDCHAR
STARTCHAR 230
ENCODING 230
SWIDTH 1728 0
DWIDTH 24 0
BBX 20 17 0 4
BITMAP
0FFF00
0FFF00
0FFF00
00F0F0
00F0F0
00F0F0
00F0F0
0FFF00
0FFF00
0FFF00
F0F000
F0F000
F0F000
0FFFF0
0FFFF0
0FFFF0
0FFFF0
ENDCHAR
STARTCHAR 231
ENCODING 231
SWIDTH 1728 0
DWIDTH 24 0
BBX 20 23 0 -2
BITMAP
0FFF00
0FFF00
0FFF00
F000F0
F000F0
F000F0
F000F0
F00000
F00000
F00000
F000F0
F000F0
F000F0
0FFF00
0FFF00
0FFF00
0FFF00
000F00
000F00
000F00
0FF000
0FF000
0FF000
ENDCHAR
STARTCHAR 232
ENCODING 232
SWIDTH 1728 0
DWIDTH 24 0
BBX 20 27 0 4
BITMAP
0F0000
0F0000
0F0000
00F000
00F000
00F000
00F000
000000
000000
000000
0FFF00
0FFF00
0FFF00
F000F0
F000F0
F000F0
F000F0
FFFF00
FFFF00
FFFF00
F00000
F00000
F00000
0FFF00
0FFF00
0FFF00
0FFF00
ENDCHAR
STARTCHAR 233
ENCODING 233
SWIDTH 1728 0
DWIDTH 24 0
BBX 20 27 0 4
BITMAP
000F00
000F00
000F00
00F000
00F000
00F000
00F000
000000
000000
000000
0FFF00
0FFF00
0FFF00
F000F0
F000F0
F000F0
F000F0
FFFF00
FFFF00
FFFF00
F00000
F00000
F00000
0FFF00
0FFF00
0FFF00
0FFF00
ENDCHAR
STARTCHAR 234
ENCODING 234
SWIDTH 1728 0
DWIDTH 24 0
BBX 20 27 0 4
BITMAP
00F000
00F000
00F000
0F0F00
0F0F00
0F0F00
0F0F00
000000
000000
000000
0FFF00
0FFF00
0FFF00
F000F0
F000F0
F000F0
F000F0
FFFF00
FFFF00
FFFF00
F00000
F00000
F00000
0FFF00
0FFF00
0FFF00
0FFF00
ENDCHAR
STARTCHAR 235
ENCODING 235
SWIDTH 1728 0
DWIDTH 24 0
BBX 20 24 0 4
BITMAP
0F0F00
0F0F00
0F0F00
0F0F00
000000
000000
000000
0FFF00
0FFF00
0FFF00
F000F0
F000F0
F000F0
F000F0
FFFF00
FFFF00
FFFF00
F00000
F00000
F00000
0FFF00
0FFF00
0FFF00
0FFF00
ENDCHAR
STARTCHAR 236
ENCODING 236
SWIDTH 1728 0
DWIDTH 24 0
BBX 12 27 4 4
BITMAP
F000
F000
F000
0F00
0F00
0F00
0F00
0000
0000
0000
FF00
FF00
FF00
0F00
0F00
0F00
0F00
0F00
0F00
0F00
0F00
0F00
0F00
FFF0
FFF0
FFF0
FFF0
ENDCHAR
STARTCHAR 237
ENCODING 237
SWIDTH 1728 0
DWIDTH 24 0
BBX 12 27 4 4
BITMAP
00F0
00F0
00F0
0F00
0F00
0F00
0F00
0000
0000
0000
FF00
FF00
FF00
0F00
0F00
0F00
0F00
0F00
0F00
0F00
0F00
0F00
0F00
FFF0
FFF0
FFF0
FFF0
ENDCHAR
STARTCHAR 238
ENCODING 238
SWIDTH 1728 0
DWIDTH 24 0
BBX 12 27 4 4
BITMAP
0F00
0F00
0F00
F0F0
F0F0
F0F0
F0F0
0000
0000
0000
FF00
FF00
FF00
0F00
0F00
0F00
0F00
0F00
0F00
0F00
0F00
0F00
0F00
FFF0
FFF0
FFF0
FFF0
ENDCHAR
STARTCHAR 239
ENCODING 239
SWIDTH 1728 0
DWIDTH 24 0
BBX 12 24 4 4
BITMAP
F0F0
F0F0
F0F0
F0F0
0000
0000
0000
FF00
FF00
FF00
0F00
0F00
0F00
0F00
0F00
0F00
0F00
0F00
0F00
0F00
FFF0
FFF0
FFF0
FFF0
ENDCHAR
STARTCHAR 240
ENCODING 240
SWIDTH 1728 0
DWIDTH 24 0
BBX 20 30 0 4
BITMAP
0F0F00
0F0F00
0F0F00
00F000
00F000
00F000
0F0F00
0F0F00
0F0F00
0F0F00
0000F0
0000F0
0000F0
0FFFF0
0FFFF0
0FFFF0
F000F0
F000F0
F000F0
F000F0
F000F0
F000F0
F000F0
F000F0
F000F0
F000F0
0FFF00
0FFF00
0FFF00
0FFF00
ENDCHAR
STARTCHAR 241
ENCODING 241
SWIDTH 1728 0
DWIDTH 24 0
BBX 20 27 0 4
BITMAP
0FF0F0
0FF0F0
0FF0F0
F0FF00
F0FF00
F0FF00
F0FF00
000000
000000
000000
F0FF00
F0FF00
F0FF00
FF00F0
FF00F0
FF00F0
FF00F0
F000F0
F000F0
F000F0
F000F0
F000F0
F000F0
F000F0
F000F0
F000F0
F000F0
ENDCHAR
STARTCHAR 242
ENCODING 242
SWIDTH 1728 0
DWIDTH 24 0
BBX 20 27 0 4
BITMAP
0F0000
0F0000
0F0000
00F000
00F000
00F000
00F000
000000
000000
000000
0FFF00
0FFF00
0FFF00
F000F0
F000F0
F000F0
F000F0
F000F0
F000F0
F000F0
F000F0
F000F0
F000F0
0FFF00
0FFF00
0FFF00
0FFF00
ENDCHAR
STARTCHAR 243
ENCODING 243
SWIDTH 1728 0
DWIDTH 24 0
BBX 20 27 0 4
BITMAP
000F00
000F00
000F00
00F000
00F000
00F000
00F000
000000
000000
000000
0FFF00
0FFF00
0FFF00
F000F0
F000F0
F000F0
F000F0
F000F0
F000F0
F000F0
F000F0
F000F0
F000F0
0FFF00
0FFF00
0FFF00
0FFF00
ENDCHAR
STARTCHAR 244
ENCODING 244
SWIDTH 1728 0
DWIDTH 24 0
BBX 20 27 0 4
BITMAP
00F000
00F000
00F000
0F0F00
0F0F00
0F0F00
0F0F00
000000
000000
000000
0FFF00
0FFF00
0FFF00
F000F0
F000F0
F000F0
F000F0
F000F0
F000F0
F000F0
F000F0
F000F0
F000F0
0FFF00
0FFF00
0FFF00
0FFF00
ENDCHAR
STARTCHAR 245
ENCODING 245
SWIDTH 1728 0
DWIDTH 24 0
BBX 20 27 0 4
BITMAP
0FF0F0
0FF0F0
0FF0F0
F0FF00
F0FF00
F0FF00
F0FF00
000000
000000
000000
0FFF00
0FFF00
0FFF00
F000F0
F000F0
F000F0
F000F0
F000F0
F000F0
F000F0
F000F0
F000F0
F000F0
0FFF00
0FFF00
0FFF00
0FFF00
ENDCHAR
STARTCHAR 246
ENCODING 246
SWIDTH 1728 0
DWIDTH 24 0
BBX 20 24 0 4
BITMAP
0F0F00
0F0F00
0F0F00
0F0F00
000000
000000
000000
0FFF00
0FFF00
0FFF00
F000F0
F000F0
F000F0
F000F0
F000F0
F000F0
F000F0
F000F0
F000F0
F000F0
0FFF00
0FFF00
0FFF00
0FFF00
ENDCHAR
STARTCHAR 247
ENCODING 247
SWIDTH 1728 0
DWIDTH 24 0
BBX 20 16 0 8
BITMAP
00F000
00F000
00F000
000000
000000
000000
FFFFF0
FFFFF0
FFFFF0
FFFFF0
000000
000000
000000
00F000
00F000
00F000
ENDCHAR
STARTCHAR 248
ENCODING 248
SWIDTH 1728 0
DWIDTH 24 0
BBX 20 17 0 4
BITMAP
0FFFF0
0FFFF0
0FFFF0
F00FF0
F00FF0
F00FF0
F00FF0
F0F0F0
F0F0F0
F0F0F0
FF00F0
FF00F0
FF00F0
FFFF00
FFFF00
FFFF00
FFFF00
ENDCHAR
STARTCHAR 249
ENCODING 249
SWIDTH 1728 0
DWIDTH 24 0
BBX 20 27 0 4
BITMAP
0F0000
0F0000
0F0000
00F000
00F000
00F000
00F000
000000
000000
000000
F000F0
F000F0
F000F0
F000F0
F000F0
F000F0
F000F0
F000F0
F000F0
F000F0
F000F0
F000F0
F000F0
0FFF00
0FFF00
0FFF00
0FFF00
ENDCHAR
STARTCHAR 250
ENCODING 250
SWIDTH 1728 0
DWIDTH 24 0
BBX 20 27 0 4
BITMAP
000F00
000F00
000F00
00F000
00F000
00F000
00F000
000000
000000
000000
F000F0
F000F0
F000F0
F000F0
F000F0
F000F0
F000F0
F000F0
F000F0
F000F0
F000F0
F000F0
F000F0
0FFF00
0FFF00
0FFF00
0FFF00
ENDCHAR
STARTCHAR 251
ENCODING 251
SWIDTH 1728 0
DWIDTH 24 0
BBX 20 27 0 4
BITMAP
00F000
00F000
00F000
0F0F00
0F0F00
0F0F00
0F0F00
000000
000000
000000
F000F0
F000F0
F000F0
F000F0
F000F0
F000F0
F000F0
F000F0
F000F0
F000F0
F000F0
F000F0
F000F0
0FFF00
0FFF00
0FFF00
0FFF00
ENDCHAR
STARTCHAR 252
ENCODING 252
SWIDTH 1728 0
DWIDTH 24 0
BBX 20 24 0 4
BITMAP
0F0F00
0F0F00
0F0F00
0F0F00
000000
000000
000000
F000F0
F000F0
F000F0
F000F0
F000F0
F000F0
F000F0
F000F0
F000F0
F000F0
F000F0
F000F0
F000F0
0FFF00
0FFF00
0FFF00
0FFF00
ENDCHAR
STARTCHAR 253
ENCODING 253
SWIDTH 1728 0
DWIDTH 24 0
BBX 20 33 0 -2
BITMAP
000F00
000F00
000F00
00F000
00F000
00F000
00F000
000000
000000
000000
F000F0
F000F0
F000F0
F000F0
F000F0
F000F0
F000F0
F000F0
F000F0
F000F0
0F0F00
0F0F00
0F0F00
00F000
00F000
00F000
00F000
0F0000
0F0000
0F0000
F00000
F00000
F00000
ENDCHAR
STARTCHAR 254
ENCODING 254
SWIDTH 1728 0
DWIDTH 24 0
BBX 20 30 0 -2
BITMAP
F00000
F00000
F00000
F00000
F00000
F00000
F00000
FFFF00
FFFF00
FFFF00
F000F0
F000F0
F000F0
F000F0
F000F0
F000F0
F000F0
F000F0
F000F0
F000F0
FFFF00
FFFF00
FFFF00
FFFF00
F00000
F00000
F00000
F00000
F00000
F00000
ENDCHAR
STARTCHAR 255
ENCODING 255
SWIDTH 1728 0
DWIDTH 24 0
BBX 20 30 0 -2
BITMAP
0F0F00
0F0F00
0F0F00
0F0F00
000000
000000
000000
F000F0
F000F0
F000F0
F000F0
F000F0
F000F0
F000F0
F000F0
F000F0
F000F0
0F0F00
0F0F00
0F0F00
00F000
00F000
00F000
00F000
0F0000
0F0000
0F0000
F00000
F00000
F00000
ENDCHAR
ENDFONT
